<?xml version="1.0" encoding="UTF-8" standalone="no" ?>
<!DOCTYPE svg PUBLIC "-//W3C//DTD SVG 1.1//EN" "http://www.w3.org/Graphics/SVG/1.1/DTD/svg11.dtd">
<svg xmlns="http://www.w3.org/2000/svg" xmlns:xlink="http://www.w3.org/1999/xlink" version="1.1" viewBox="65 183 375 140" xml:space="preserve">
<desc>Created with Fabric.js 3.6.3</desc>
<defs>
</defs>
<g transform="matrix(1 0 0 1 337.9406133763897 250.0466389887156)" style=""  ><path fill="#0A4F4F" opacity="1" d="M-114.54 4.91L-111.18 7.23Q-111.82 8.23-112.63 9.09Q-113.44 9.95-114.53 10.58Q-115.62 11.21-117.08 11.57Q-118.53 11.94-120.47 11.94L-120.47 11.94Q-126.10 11.94-128.82 8.74Q-131.55 5.55-131.55-0.86L-131.55-0.86Q-131.55-7.31-128.81-10.49Q-126.08-13.67-120.65-13.67L-120.65-13.67Q-118.78-13.67-117.34-13.32Q-115.90-12.97-114.80-12.37Q-113.70-11.77-112.91-10.94Q-112.12-10.11-111.55-9.16L-111.55-9.16L-114.86-6.76Q-115.25-7.36-115.72-7.95Q-116.19-8.53-116.85-8.99Q-117.52-9.44-118.43-9.72Q-119.33-9.99-120.57-9.99L-120.57-9.99Q-124.04-9.99-125.65-7.70Q-127.27-5.41-127.27-0.86L-127.27-0.86Q-127.27 1.57-126.83 3.29Q-126.40 5.01-125.55 6.12Q-124.69 7.23-123.43 7.75Q-122.17 8.26-120.54 8.26L-120.54 8.26Q-119.31 8.26-118.39 8.00Q-117.47 7.73-116.77 7.28Q-116.06 6.82-115.53 6.21Q-115.00 5.60-114.54 4.91L-114.54 4.91Z"/><path fill="#0A4F4F" opacity="1" d="M-88.75 11.42L-103.63 11.42L-103.63-13.15L-99.49-13.15L-99.49 7.64L-88.75 7.64L-88.75 11.42Z"/><path fill="#0A4F4F" opacity="1" d="M-79.89 11.42L-84.03 11.42L-75.77-13.15L-70.39-13.15L-62.10 11.42L-66.40 11.42L-68.28 5.76L-78.03 5.76L-79.89 11.42ZM-73.16-9.01L-76.84 2.05L-69.52 2.05L-73.16-9.01Z"/><path fill="#0A4F4F" opacity="1" d="M-36.43 11.42L-41.23 11.42L-47.48 1.75L-50.91 1.75L-50.91 11.42L-55.04 11.42L-55.04-13.15L-46.75-13.15Q-44.55-13.15-42.89-12.77Q-41.23-12.39-40.13-11.54Q-39.03-10.70-38.48-9.34Q-37.93-7.98-37.93-6.03L-37.93-6.03Q-37.93-4.29-38.31-3.03Q-38.69-1.77-39.37-0.90Q-40.06-0.03-41.00 0.48Q-41.94 0.98-43.04 1.21L-43.04 1.21L-36.43 11.42ZM-42.17-5.82L-42.17-5.82Q-42.17-6.90-42.44-7.61Q-42.70-8.32-43.26-8.75Q-43.82-9.17-44.70-9.35Q-45.58-9.53-46.79-9.53L-46.79-9.53L-50.91-9.53L-50.91-1.89L-47.02-1.89Q-45.61-1.89-44.68-2.10Q-43.75-2.30-43.19-2.76Q-42.63-3.23-42.40-3.97Q-42.17-4.72-42.17-5.82Z"/><path fill="#0A4F4F" opacity="1" d="M-13.77 11.42L-29.25 11.42L-29.25-13.15L-13.77-13.15L-13.77-9.46L-25.11-9.46L-25.11-3.23L-15.47-3.23L-15.47 0.49L-25.11 0.49L-25.11 7.64L-13.77 7.64L-13.77 11.42Z"/><path fill="#0A4F4F" opacity="1" d="M10.09 11.42L-5.39 11.42L-5.39-13.15L10.09-13.15L10.09-9.46L-1.26-9.46L-1.26-3.23L8.38-3.23L8.38 0.49L-1.26 0.49L-1.26 7.64L10.09 7.64L10.09 11.42Z"/><path fill="#0A4F4F" opacity="1" d="M37.07 11.42L32.28 11.42L26.03 1.75L22.60 1.75L22.60 11.42L18.46 11.42L18.46-13.15L26.75-13.15Q28.96-13.15 30.62-12.77Q32.28-12.39 33.38-11.54Q34.48-10.70 35.03-9.34Q35.58-7.98 35.58-6.03L35.58-6.03Q35.58-4.29 35.20-3.03Q34.82-1.77 34.13-0.90Q33.45-0.03 32.51 0.48Q31.57 0.98 30.46 1.21L30.46 1.21L37.07 11.42ZM31.34-5.82L31.34-5.82Q31.34-6.90 31.07-7.61Q30.80-8.32 30.24-8.75Q29.68-9.17 28.80-9.35Q27.93-9.53 26.72-9.53L26.72-9.53L22.60-9.53L22.60-1.89L26.49-1.89Q27.89-1.89 28.82-2.10Q29.75-2.30 30.31-2.76Q30.87-3.23 31.10-3.97Q31.34-4.72 31.34-5.82Z"/><path fill="#0A4F4F" opacity="1" d="M62.99 11.42L58.83 11.42L58.83 0.59L48.39 0.59L48.39 11.42L44.25 11.42L44.25-13.15L48.39-13.15L48.39-3.19L58.83-3.19L58.83-13.15L62.99-13.15L62.99 11.42Z"/><path fill="#0A4F4F" opacity="1" d="M90.71 13.47L91.81 16.80Q91.34 16.96 90.74 17.09Q90.15 17.21 89.53 17.28Q88.92 17.35 88.34 17.39Q87.77 17.43 87.34 17.43L87.34 17.43Q85.51 17.43 84.16 17.04Q82.81 16.64 81.85 15.91Q80.89 15.17 80.31 14.14Q79.72 13.11 79.40 11.83L79.40 11.83Q75.34 11.32 73.24 8.17Q71.15 5.03 71.15-0.86L71.15-0.86Q71.15-3.90 71.72-6.28Q72.30-8.66 73.55-10.30Q74.80-11.94 76.77-12.81Q78.73-13.67 81.48-13.67L81.48-13.67Q84.21-13.67 86.16-12.80Q88.10-11.93 89.35-10.28Q90.59-8.64 91.17-6.26Q91.74-3.88 91.74-0.86L91.74-0.86Q91.74 4.59 89.85 7.80Q87.96 11.02 83.98 11.74L83.98 11.74Q84.11 12.28 84.35 12.68Q84.59 13.09 85.00 13.37Q85.40 13.64 86.02 13.79Q86.63 13.93 87.48 13.93L87.48 13.93Q87.80 13.93 88.22 13.89Q88.64 13.86 89.08 13.79Q89.52 13.73 89.95 13.64Q90.38 13.55 90.71 13.47L90.71 13.47ZM87.41-0.86L87.41-0.86Q87.41-3.15 87.09-4.87Q86.77-6.58 86.07-7.72Q85.37-8.85 84.23-9.42Q83.10-9.99 81.48-9.99L81.48-9.99Q79.81-9.99 78.67-9.42Q77.52-8.85 76.80-7.72Q76.08-6.58 75.76-4.87Q75.44-3.15 75.44-0.86L75.44-0.86Q75.44 1.44 75.76 3.16Q76.08 4.87 76.80 6.01Q77.52 7.14 78.67 7.70Q79.81 8.26 81.48 8.26L81.48 8.26Q83.13 8.26 84.27 7.70Q85.40 7.13 86.10 5.98Q86.79 4.84 87.10 3.12Q87.41 1.41 87.41-0.86Z"/></g><g transform="matrix(2.036038758220899 0 0 2.036038758220899 127.61562982108956 251)"  >
<g style=""   >
		<g transform="matrix(1 0 0 1 0.011162650000002827 3.7944335999999996)"  >
<path style="stroke: none; stroke-width: 1; stroke-dasharray: none; stroke-linecap: butt; stroke-dashoffset: 0; stroke-linejoin: miter; stroke-miterlimit: 4; fill: rgb(42,139,139); fill-rule: nonzero; opacity: 1;"  transform=" translate(-32.51116265, -36.2944336)" d="M 25.3436832 40.9272461 h 14.334959 c 0.4140625 0 0.75 -0.3359375 0.75 -0.75 v -2.9169922 c 0 -3.0869141 -2.5087891 -5.5986328 -5.5917969 -5.5986328 h -4.6513653 c -3.0830078 0 -5.5917969 2.5117188 -5.5917969 5.5986328 v 2.9169922 C 24.5936832 40.5913086 24.9296207 40.9272461 25.3436832 40.9272461 z M 26.0936832 37.2602539 c 0 -2.2597656 1.8359375 -4.0986328 4.0917969 -4.0986328 h 4.6513653 c 2.2558594 0 4.0917969 1.8388672 4.0917969 4.0986328 v 2.1669922 h -12.834959 V 37.2602539 z" stroke-linecap="round" />
</g>
		<g transform="matrix(1 0 0 1 0.011162749999998667 -5.444091849999998)"  >
<path style="stroke: none; stroke-width: 1; stroke-dasharray: none; stroke-linecap: butt; stroke-dashoffset: 0; stroke-linejoin: miter; stroke-miterlimit: 4; fill: rgb(42,139,139); fill-rule: nonzero; opacity: 1;"  transform=" translate(-32.51116275, -27.05590815)" d="M 32.5116501 30.8974609 c 2.1181641 0 3.8408203 -1.7236328 3.8408203 -3.8417969 s -1.7226563 -3.8413086 -3.8408203 -3.8413086 s -3.841795 1.7231445 -3.841795 3.8413086 S 30.3934879 30.8974609 32.5116501 30.8974609 z M 32.5116501 24.7143555 c 1.2910156 0 2.3408203 1.050293 2.3408203 2.3413086 c 0 1.2915039 -1.0498047 2.3417969 -2.3408203 2.3417969 c -1.2910137 0 -2.341795 -1.050293 -2.341795 -2.3417969 C 30.1698551 25.7646484 31.2206364 24.7143555 32.5116501 24.7143555 z" stroke-linecap="round" />
</g>
		<g transform="matrix(1 0 0 1 0.011162799999986817 0.4353026500000112)"  >
<path style="stroke: none; stroke-width: 1; stroke-dasharray: none; stroke-linecap: butt; stroke-dashoffset: 0; stroke-linejoin: miter; stroke-miterlimit: 4; fill: rgb(42,139,139); fill-rule: nonzero; opacity: 1;"  transform=" translate(-32.51116279999999, -32.93530265000001)" d="M 22.1093082 47.53125 l 4.1445313 -3.4672852 c 0.8759766 0.4995117 1.8173828 0.890625 2.8105469 1.1674805 l 0.4824219 5.3857422 c 0.0351563 0.3867188 0.3583984 0.6831055 0.7470703 0.6831055 h 4.435545 c 0.3886719 0 0.7128906 -0.2963867 0.7470703 -0.6831055 l 0.4804688 -5.3813477 c 0.9716797 -0.2651367 1.9169922 -0.6582031 2.8222656 -1.1728516 l 4.1464844 3.4682617 c 0.2978516 0.25 0.7382813 0.2299805 1.0126953 -0.0458984 l 3.125 -3.1367188 c 0.2734375 -0.2744141 0.2929688 -0.7119141 0.0449219 -1.0097656 l -3.4589844 -4.1484375 c 0.5068359 -0.8964844 0.8964844 -1.8378906 1.1621094 -2.809082 l 5.3808594 -0.4814453 c 0.3867188 -0.034668 0.6835938 -0.3588867 0.6835938 -0.7470703 v -4.4350586 c 0 -0.3881836 -0.296875 -0.7124023 -0.6835938 -0.7470703 l -5.3798828 -0.480957 c -0.265625 -0.9726563 -0.6591797 -1.9179688 -1.1738281 -2.8222656 l 3.46875 -4.1464844 c 0.2490234 -0.2983398 0.2294922 -0.7373047 -0.0449219 -1.0117188 l -3.125 -3.125 c -0.2734375 -0.2753906 -0.7148438 -0.293457 -1.0117188 -0.0449219 l -4.1464844 3.4682617 c -0.9052734 -0.5151367 -1.8505859 -0.9077148 -2.8222656 -1.1728516 l -0.4804688 -5.3813477 c -0.0341797 -0.3867188 -0.3583984 -0.6831055 -0.7470703 -0.6831055 h -4.435545 c -0.3886719 0 -0.7119141 0.2963867 -0.7470703 0.6831055 l -0.4824219 5.3857422 c -0.9931641 0.2768555 -1.9345703 0.6679688 -2.8105469 1.1674805 l -4.1445313 -3.4672852 c -0.2958984 -0.2485352 -0.734375 -0.2290039 -1.0107422 0.0439453 l -3.1377087 3.125 c -0.2763538 0.2749023 -0.2958851 0.7148438 -0.0449085 1.0131836 l 3.4794922 4.1469727 c -0.515625 0.9057617 -0.9082031 1.8505859 -1.1728516 2.8208008 l -5.3925781 0.4814453 c -0.3867188 0.034668 -0.6835938 0.3588867 -0.6835938 0.7470703 v 4.4350586 c 0 0.3881836 0.296875 0.7124023 0.6835938 0.7470703 l 5.3935547 0.4814453 c 0.2646484 0.9697266 0.6542969 1.9106445 1.1611328 2.8081055 l -3.4697266 4.1489258 c -0.2490234 0.2978516 -0.2294922 0.7368164 0.0449219 1.0112305 l 3.1376953 3.1367188 C 21.3729801 47.7631836 21.8134098 47.7802734 22.1093082 47.53125 z M 22.8759098 39.7446289 c 0.2080078 -0.2480469 0.2324219 -0.6020508 0.0615234 -0.8769531 c -0.65625 -1.0556641 -1.1220703 -2.1826172 -1.3837891 -3.3500977 c -0.0712891 -0.3183594 -0.3398438 -0.5541992 -0.6650391 -0.5830078 l -5.2421875 -0.4677734 v -3.0629883 l 5.2421875 -0.4677734 c 0.3261719 -0.0292969 0.5947266 -0.265625 0.6660156 -0.5844727 c 0.2578125 -1.1630859 0.7265625 -2.2929688 1.3935547 -3.3588867 c 0.1728516 -0.2758789 0.1474609 -0.6308594 -0.0615234 -0.8798828 l -3.3789063 -4.027832 l 2.1640625 -2.1557617 l 4.0292969 3.3706055 c 0.2509766 0.2089844 0.6074219 0.2319336 0.8828125 0.0585938 c 1.0146484 -0.6425781 2.1416016 -1.1113281 3.3515625 -1.3935547 c 0.3144531 -0.0737305 0.546875 -0.3413086 0.5761719 -0.6635742 l 0.4677734 -5.230957 h 3.0644512 l 0.4667969 5.230957 c 0.0292969 0.3251953 0.265625 0.5942383 0.5849609 0.6655273 c 1.1640625 0.2583008 2.2939453 0.7270508 3.3574219 1.3935547 c 0.2773438 0.1723633 0.6298828 0.1474609 0.8798828 -0.0605469 l 4.0292969 -3.3696289 l 2.1542969 2.1542969 l -3.3701172 4.0288086 c -0.2080078 0.2495117 -0.2324219 0.6044922 -0.0605583 0.8793945 c 0.6660271 1.0629883 1.1347771 2.1933594 1.3945427 3.359375 c 0.0712891 0.3188477 0.3408203 0.5546875 0.6660156 0.5839844 l 5.2294922 0.4677734 v 3.0629883 l -5.2294922 0.4677734 c -0.3251953 0.0292969 -0.59375 0.2646484 -0.6650391 0.5825195 c -0.2636719 1.1704102 -0.7285156 2.2973633 -1.3837891 3.3505859 c -0.1708984 0.2744141 -0.1464844 0.6279297 0.0605469 0.8764648 l 3.3603516 4.0302734 l -2.1572266 2.1655273 l -4.0283203 -3.3691406 c -0.25 -0.2089844 -0.6025391 -0.2333984 -0.8798828 -0.0605469 c -1.0634766 0.6660156 -2.1933594 1.1352539 -3.3583984 1.3945313 c -0.3183594 0.0708008 -0.5546875 0.3398438 -0.5839844 0.6650391 l -0.4667969 5.2304688 h -3.0644512 l -0.4677734 -5.2304688 c -0.0292969 -0.3222656 -0.2607422 -0.5898438 -0.5761719 -0.6635742 c -1.2099609 -0.2827148 -2.3378906 -0.7519531 -3.3515625 -1.394043 c -0.2753906 -0.1728516 -0.6318359 -0.1503906 -0.8828125 0.0585938 l -4.0283203 3.3696289 l -2.1669922 -2.1665039 L 22.8759098 39.7446289 z" stroke-linecap="round" />
</g>
		<g transform="matrix(1 0 0 1 -2.2286292278295e-7 1.0000000116861e-7)"  >
<path style="stroke: none; stroke-width: 1; stroke-dasharray: none; stroke-linecap: butt; stroke-dashoffset: 0; stroke-linejoin: miter; stroke-miterlimit: 4; fill: rgb(42,139,139); fill-rule: nonzero; opacity: 1;"  transform=" translate(-32.49999977713708, -32.5000001)" d="M 6.1864567 43.784668 c -1.6390023 0.9397469 -2.2023959 3.0261192 -1.2626953 4.6650391 c 0.922802 1.6082268 3.0036931 2.2157784 4.6640625 1.2631836 c 1.3815928 -0.7930107 2.0385523 -2.42733 1.5594482 -3.970459 l 2.7244263 -1.5632324 l 5.7317505 9.9282227 c 0.1337891 0.2319336 0.3818359 0.375 0.6494141 0.375 H 31.761652 v 3.0214844 c -1.5241089 0.3436279 -2.6679688 1.7026367 -2.6679688 3.3286133 c 0 1.8842773 1.5332031 3.4174805 3.4179668 3.4174805 c 1.8837891 0 3.4169922 -1.5332031 3.4169922 -3.4174805 c 0 -1.6258545 -1.1437378 -2.9847412 -2.6669922 -3.3284912 v -3.0216064 h 11.5078125 c 0.2675781 0 0.515625 -0.1430664 0.6494141 -0.375 l 5.7265015 -9.918335 l 2.7072144 1.5533447 c -0.4785995 1.5413628 0.1765366 3.1776123 1.5584717 3.9699707 c 1.6625824 0.9536285 3.742836 0.3452339 4.6650391 -1.2626953 c 0.9437599 -1.6459923 0.3687553 -3.7290611 -1.2636719 -4.6650391 c -1.389183 -0.7983208 -3.1275673 -0.5219803 -4.2127686 0.6575928 l -2.7045288 -1.5518799 L 57.6776657 32.875 c 0.1337891 -0.2319336 0.1337891 -0.5180664 0 -0.75 l -5.6638184 -9.8095703 l 2.5859375 -1.4838257 c 1.0765915 1.1699085 2.8114815 1.4620247 4.2126465 0.6581421 c 1.6325188 -0.9370365 2.207386 -3.0196095 1.2636719 -4.6655273 c -0.923172 -1.6096153 -3.003994 -2.2154455 -4.6650391 -1.2626953 c -1.3720398 0.7866821 -2.0403404 2.4180775 -1.5584717 3.9699707 l -2.588562 1.4852905 l -5.8451538 -10.1237183 c -0.1337891 -0.2319336 -0.3818359 -0.375 -0.6494141 -0.375 H 33.2616501 V 7.4959717 c 1.5232544 -0.34375 2.6669922 -1.7026367 2.6669922 -3.3284912 c 0 -1.8842773 -1.5332031 -3.4174805 -3.4169922 -3.4174805 c -1.8847637 0 -3.4179668 1.5332031 -3.4179668 3.4174805 c 0 1.6259766 1.1438599 2.9849854 2.6679688 3.3286133 v 3.0219727 H 20.2528629 c -0.2675781 0 -0.515625 0.1430664 -0.6494141 0.375 l -5.8504028 10.133606 l -2.6057739 -1.4951782 c 0.4779949 -1.5395565 -0.174715 -3.176012 -1.5594482 -3.9699707 c -1.6503186 -0.9483871 -3.7356892 -0.3559875 -4.6640625 1.2626953 c -0.9397442 1.6389942 -0.3762231 3.725338 1.2626953 4.6650391 c 1.4048948 0.8058262 3.1391878 0.5103016 4.2137451 -0.6575928 l 2.6030884 1.4936523 L 7.3456364 32.125 c -0.1337891 0.2319336 -0.1337891 0.5180664 0 0.75 l 5.7763062 10.0054932 l -2.7217407 1.5617676 C 9.3251505 43.2738304 7.5907707 42.9791756 6.1864567 43.784668 z M 34.4286423 60.8325195 c 0 1.0571289 -0.8603516 1.9174805 -1.9169922 1.9174805 c -1.0576153 0 -1.9179668 -0.8603516 -1.9179668 -1.9174805 s 0.8603516 -1.9174805 1.9179668 -1.9174805 C 33.5682907 58.9150391 34.4286423 59.7753906 34.4286423 60.8325195 z M 58.0663376 45.0859375 c 0.9203568 0.5269279 1.2355652 1.6997261 0.7089844 2.6166992 c -0.5058594 0.8823242 -1.7246094 1.2197266 -2.6181641 0.7089844 c -0.919735 -0.5287476 -1.2343979 -1.7005386 -0.7080078 -2.6171875 C 55.9638367 44.8963165 57.1282578 44.5476418 58.0663376 45.0859375 z M 56.1571579 16.8623047 c 0.9285851 -0.5312862 2.0970039 -0.2004375 2.6181641 0.7089844 c 0.5260849 0.9161129 0.2123489 2.0886879 -0.7089844 2.6171875 c -0.9257774 0.5296822 -2.0943832 0.2032986 -2.6171875 -0.7089844 C 54.9229431 18.5631638 55.2370644 17.3912582 56.1571579 16.8623047 z M 30.5936832 4.1674805 c 0 -1.0571289 0.8603516 -1.9174805 1.9179668 -1.9174805 c 1.0566406 0 1.9169922 0.8603516 1.9169922 1.9174805 s -0.8603516 1.9174805 -1.9169922 1.9174805 C 31.4540348 6.0849609 30.5936832 5.2246094 30.5936832 4.1674805 z M 6.9325504 20.1884766 c -0.9197359 -0.5287476 -1.2343998 -1.7005386 -0.7080078 -2.6171875 c 0.5146837 -0.8981152 1.6791072 -1.2467899 2.6171875 -0.7084961 c 0.9203539 0.5269279 1.2355623 1.699728 0.7089844 2.6166992 C 9.0458317 20.3623047 7.8261051 20.6992188 6.9325504 20.1884766 z M 20.6854801 12.0180664 h 23.6513653 l 5.9042969 10.2266235 c 0.0164795 0.0634155 0.0283203 0.1278687 0.0625 0.187439 c 0.0266113 0.0463867 0.0733032 0.0688477 0.107605 0.1071777 L 56.1620407 32.5 L 44.3368454 52.9824219 H 20.6854801 L 8.8612614 32.5 C 11.6502886 27.6731491 17.7569065 17.0991573 20.6854801 12.0180664 z M 8.8417301 48.4116211 c -0.9257798 0.5296822 -2.0943856 0.2032967 -2.6171875 -0.7089844 c -0.5262089 -0.9163284 -0.2120891 -2.0882339 0.7080078 -2.6171875 c 0.9285822 -0.5312843 2.0970011 -0.2004395 2.6181641 0.7089844 C 10.0767994 46.7105446 9.7630606 47.8831215 8.8417301 48.4116211 z" stroke-linecap="round" />
</g>
</g>
</g>
</svg>
